<?xml version="1.0" encoding="UTF-8" standalone="no"?>
<!-- Created with Inkscape (http://www.inkscape.org/) -->

<svg
   width="101.42712mm"
   height="101.42715mm"
   viewBox="0 0 101.42712 101.42715"
   version="1.1"
   id="svg5"
   xml:space="preserve"
   inkscape:version="1.2.2 (732a01da63, 2022-12-09)"
   sodipodi:docname="logo.svg"
   xmlns:inkscape="http://www.inkscape.org/namespaces/inkscape"
   xmlns:sodipodi="http://sodipodi.sourceforge.net/DTD/sodipodi-0.dtd"
   xmlns="http://www.w3.org/2000/svg"
   xmlns:svg="http://www.w3.org/2000/svg"><sodipodi:namedview
     id="namedview7"
     pagecolor="#ffffff"
     bordercolor="#000000"
     borderopacity="0.25"
     inkscape:showpageshadow="2"
     inkscape:pageopacity="0.0"
     inkscape:pagecheckerboard="0"
     inkscape:deskcolor="#d1d1d1"
     inkscape:document-units="mm"
     showgrid="false"
     inkscape:zoom="0.58721401"
     inkscape:cx="-1679.9667"
     inkscape:cy="-385.71968"
     inkscape:window-width="1920"
     inkscape:window-height="991"
     inkscape:window-x="-9"
     inkscape:window-y="291"
     inkscape:window-maximized="1"
     inkscape:current-layer="layer1" /><defs
     id="defs2"><clipPath
       clipPathUnits="userSpaceOnUse"
       id="clipPath411"><rect
         style="fill:none;stroke:#000000;stroke-width:0.216579"
         id="rect413"
         width="101.42715"
         height="101.42715"
         x="-608.90759"
         y="-129.0901" /></clipPath></defs><g
     inkscape:label="Layer 1"
     inkscape:groupmode="layer"
     id="layer1"
     transform="translate(608.90761,129.0901)"><path
       style="fill:#000000;stroke-width:0.264583"
       d="m -666.92101,-7.7989491 c 0.0151,-1.0140553 0.0425,-1.0600584 0.27851,-0.4684607 0.14396,0.3608097 0.45253,0.8668253 0.6857,1.1244792 0.39552,0.4370493 0.37685,0.4684606 -0.27851,0.4684606 -0.65268,0 -0.70128,-0.079708 -0.6857,-1.1244791 z m 216.67698,1.024583 c 0,-0.054941 0.17859,-0.248113 0.39688,-0.4292705 0.32504,-0.2697613 0.39687,-0.2516823 0.39687,0.099896 0,0.2360983 -0.17859,0.4292706 -0.39687,0.4292706 -0.21829,0 -0.39688,-0.044953 -0.39688,-0.099896 z M -565.33778,-28.88906 c -21.55138,-3.334218 -38.27218,-19.732717 -42.23174,-41.417699 -0.37499,-2.053664 -0.48483,-4.007823 -0.49079,-8.731249 -0.009,-6.936425 0.36993,-9.483855 2.28121,-15.345833 6.08889,-18.674879 22.72445,-32.293949 42.16111,-34.516119 3.0519,-0.34892 8.58977,-0.34892 11.64167,0 10.75799,1.22995 20.93906,6.01141 28.89823,13.57185 17.42632,16.5533 20.74499,43.536515 7.82745,63.642855 -8.20331,12.768572 -21.70802,21.213431 -36.85103,23.043935 -3.39477,0.410363 -9.75135,0.291388 -13.23611,-0.24774 z m 13.75833,-2.507523 c 22.907,-3.051786 40.37381,-22.012591 41.45021,-44.995592 0.74747,-15.959621 -6.34763,-31.051295 -19.09135,-40.608385 -17.53956,-13.15369 -41.63242,-12.65161 -58.78549,1.22506 -8.62886,6.98068 -14.56901,16.817371 -16.77194,27.773787 -1.18841,5.910659 -0.94707,14.832475 0.56226,20.785293 4.82043,19.01188 20.60051,33.158399 39.93631,35.802095 3.38159,0.462348 9.30068,0.470617 12.7,0.01775 z m -39.95208,-20.786218 c 0,-4.321527 0.0207,-4.497917 0.52917,-4.497917 0.48213,0 0.52916,0.17639 0.52916,1.984375 v 1.984375 h 2.51354 2.51355 v -1.984375 c 0,-1.807985 0.047,-1.984375 0.52916,-1.984375 0.50842,0 0.52917,0.17639 0.52917,4.497917 0,4.321526 -0.0207,4.497916 -0.52917,4.497916 -0.48213,0 -0.52916,-0.17639 -0.52916,-1.984375 v -1.984375 h -2.51355 -2.51354 v 1.984375 c 0,1.807985 -0.047,1.984375 -0.52916,1.984375 -0.50842,0 -0.52917,-0.17639 -0.52917,-4.497916 z m 9.78958,0 c 0,-4.321527 0.0208,-4.497917 0.52917,-4.497917 0.50842,0 0.52917,0.17639 0.52917,4.497917 0,4.321526 -0.0208,4.497916 -0.52917,4.497916 -0.50842,0 -0.52917,-0.17639 -0.52917,-4.497916 z m 3.70417,0 v -4.497917 h 0.76479 c 0.73029,0 0.83401,0.161838 2.29899,3.587181 0.84381,1.972951 1.60175,3.628933 1.68431,3.679957 0.0826,0.05103 0.85486,-1.563208 1.71622,-3.587183 1.48609,-3.491955 1.60428,-3.679955 2.3134,-3.679955 h 0.74729 v 4.497917 c 0,4.300069 -0.0229,4.497916 -0.5217,4.497916 -0.48962,0 -0.52623,-0.218207 -0.59531,-3.548604 l -0.0736,-3.548605 -1.48748,3.482459 c -2.00388,4.691424 -2.1261,4.691229 -4.15178,-0.0067 l -1.50449,-3.489171 -0.0736,3.55532 c -0.0691,3.337083 -0.10563,3.555322 -0.59531,3.555322 -0.49875,0 -0.5217,-0.197847 -0.5217,-4.497916 z m 11.11447,4.299479 c 10e-4,-0.109141 0.82792,-2.103438 1.83743,-4.431771 2.51486,-5.800272 2.49274,-5.799783 4.92733,-0.109225 1.00773,2.35544 1.87192,4.3854 1.92042,4.511024 0.0485,0.125627 -0.16869,0.228409 -0.48267,0.228409 -0.41529,0 -0.69169,-0.287681 -1.01423,-1.055642 l -0.44338,-1.055643 -2.44953,-0.0027 -2.44954,-0.0027 -0.42346,1.058333 c -0.28506,0.712436 -0.58702,1.058333 -0.9239,1.058333 -0.27524,0 -0.49956,-0.0893 -0.49847,-0.198437 z m 6.08345,-3.196992 c 0,-0.121235 -0.40907,-1.161153 -0.90903,-2.310927 -0.84246,-1.937392 -0.92754,-2.042361 -1.16176,-1.433216 -0.139,0.361503 -0.56337,1.356704 -0.94305,2.211557 -0.37968,0.854853 -0.69033,1.598993 -0.69033,1.653646 0,0.05465 0.83344,0.09937 1.85208,0.09937 1.01865,0 1.85209,-0.09919 1.85209,-0.22043 z m 4.23333,-1.102487 c 0,-4.321527 0.0207,-4.497917 0.52917,-4.497917 0.50558,0 0.52916,0.17639 0.52916,3.957622 v 3.957619 l 2.04766,0.07728 c 1.70323,0.06428 2.06252,0.155155 2.13606,0.540295 0.0795,0.416179 -0.18121,0.463021 -2.57682,0.463021 h -2.66523 z m 5.82083,4.288639 c 0,-0.115102 0.81621,-2.109399 1.81379,-4.431771 1.57216,-3.659999 1.89877,-4.232851 2.45174,-4.300249 0.6665,-0.08124 0.59222,-0.22734 4.10887,8.081401 0.34887,0.824244 0.33912,0.859785 -0.23491,0.857205 -0.44683,-0.0021 -0.71142,-0.270682 -1.04223,-1.058333 l -0.44338,-1.055642 h -2.40304 -2.40304 l -0.42346,1.058333 c -0.28506,0.712436 -0.58702,1.058333 -0.9239,1.058333 -0.27524,0 -0.50044,-0.09418 -0.50044,-0.209277 z m 6.08607,-3.16416 c 10e-4,-0.36962 -1.68257,-4.034896 -1.85359,-4.034896 -0.13758,0 -0.84385,1.551411 -1.77663,3.902604 -0.0975,0.245867 0.35128,0.330729 1.74918,0.330729 1.03422,0 1.88068,-0.0893 1.88104,-0.198437 z m 6.61393,1.511205 c 0,-1.829345 -0.0272,-1.902939 -1.54019,-4.167188 -2.11351,-3.162948 -2.02834,-2.966413 -1.28561,-2.966413 0.51142,0 0.91192,0.410258 1.93384,1.980957 0.70886,1.089527 1.3637,1.982496 1.45521,1.984375 0.0915,0.0019 0.74634,-0.888013 1.45521,-1.977538 0.9699,-1.49075 1.43615,-1.981804 1.88415,-1.984375 0.32742,-0.0019 0.59531,0.06885 0.59531,0.157178 0,0.08833 -0.77391,1.270609 -1.71979,2.627286 l -1.71979,2.466692 v 1.870628 c 0,1.69424 -0.0499,1.87063 -0.52917,1.87063 -0.47904,0 -0.52917,-0.17639 -0.52917,-1.862232 z m 5.98504,-0.32058 c 0.51584,-1.200547 1.37453,-3.227771 1.9082,-4.504944 0.87536,-2.09492 1.03403,-2.314972 1.6216,-2.248958 0.56977,0.06402 0.87394,0.586465 2.43021,4.174214 0.9784,2.255573 1.78665,4.24987 1.7961,4.431771 0.009,0.181901 -0.20801,0.330729 -0.48325,0.330729 -0.33688,0 -0.63884,-0.345897 -0.9239,-1.058333 l -0.42346,-1.058333 h -2.40304 -2.40304 l -0.44338,1.055642 c -0.32648,0.777338 -0.59767,1.056352 -1.02865,1.058333 -0.57529,0.0026 -0.56928,-0.03452 0.35261,-2.180121 z m 5.39205,-1.091557 c 0,-0.05465 -0.31065,-0.798793 -0.69033,-1.653646 -0.37968,-0.854853 -0.80406,-1.850054 -0.94305,-2.211557 -0.23422,-0.609145 -0.31931,-0.504176 -1.16176,1.433216 -0.49997,1.149774 -0.90903,2.189692 -0.90903,2.310927 0,0.121237 0.83344,0.220429 1.85208,0.220429 1.01865,0 1.85209,-0.04472 1.85209,-0.09937 z m -61.9125,-12.865213 v -3.96875 h -1.47461 c -1.26197,0 -1.46175,-0.06677 -1.38544,-0.463021 0.0795,-0.412594 0.46297,-0.463021 3.5215,-0.463021 3.05854,0 3.44205,0.05043 3.52151,0.463021 0.077,0.399934 -0.12977,0.463021 -1.51773,0.463021 h -1.6069 v 3.96875 c 0,3.79236 -0.0235,3.968749 -0.52917,3.968749 -0.50564,0 -0.52916,-0.176389 -0.52916,-3.968749 z m 5.82083,-0.529167 c 0,-4.321527 0.0207,-4.497916 0.52917,-4.497916 0.48213,0 0.52916,0.176389 0.52916,1.984374 v 1.984375 h 2.36966 2.36966 l 0.0777,-1.915424 c 0.064,-1.576986 0.15955,-1.931032 0.54076,-2.003774 0.42634,-0.08135 0.46302,0.269488 0.46302,4.428966 0,4.340926 -0.0207,4.517315 -0.52917,4.517315 -0.48213,0 -0.52917,-0.176389 -0.52917,-1.984374 v -1.984375 h -2.38125 -2.38125 v 1.984375 c 0,1.807985 -0.047,1.984374 -0.52916,1.984374 -0.50842,0 -0.52917,-0.176389 -0.52917,-4.497916 z m 9.58475,0.06615 0.0725,-4.431771 h 2.7745 c 2.43203,0 2.78551,0.05716 2.86367,0.463021 0.0796,0.413504 -0.16756,0.463021 -2.31148,0.463021 h -2.40065 v 1.455208 1.455208 h 2.11667 c 1.94028,0 2.11667,0.0441 2.11667,0.529167 0,0.485069 -0.17639,0.529167 -2.11667,0.529167 h -2.11667 v 1.444908 1.444905 l 2.31213,0.07645 c 1.95567,0.06466 2.32578,0.14783 2.40065,0.539467 0.08,0.418475 -0.19396,0.46302 -2.84769,0.46302 h -2.93622 z m 13.16942,0.463021 v -3.96875 h -1.45521 c -1.27882,0 -1.45521,-0.06414 -1.45521,-0.529167 0,-0.502031 0.17639,-0.529166 3.43958,-0.529166 3.2632,0 3.43959,0.02714 3.43959,0.529166 0,0.465027 -0.17639,0.529167 -1.45521,0.529167 h -1.45521 v 3.96875 c 0,3.79236 -0.0235,3.968749 -0.52917,3.968749 -0.50564,0 -0.52916,-0.176389 -0.52916,-3.968749 z m 4.79429,3.241145 c 0.14787,-0.400182 1.00828,-2.394479 1.91202,-4.43177 1.2667,-2.8555 1.76684,-3.722098 2.18294,-3.782425 0.37444,-0.05429 0.64525,0.148315 0.88415,0.661458 0.70685,1.518264 3.45576,7.985355 3.45576,8.130021 0,0.08268 -0.23908,0.15032 -0.53131,0.15032 -0.37289,0 -0.65756,-0.31555 -0.95477,-1.058333 l -0.42346,-1.058333 -2.41866,0.0027 -2.41867,0.0027 -0.44337,1.055643 c -0.30953,0.736944 -0.6049,1.055626 -0.97843,1.055626 -0.47248,0 -0.50361,-0.08509 -0.2662,-0.727604 z m 5.11755,-4.587507 c -0.50381,-1.177062 -0.91913,-2.218859 -0.92295,-2.315104 -0.01,-0.246488 -1.84514,3.965858 -1.84514,4.234786 0,0.121237 0.82892,0.22043 1.84204,0.22043 h 1.84205 z m 4.90482,0.817195 v -4.497916 l 1.65365,0.0016 c 3.0591,0.0027 4.43177,0.761786 4.43177,2.450671 0,0.431972 -0.26312,1.010023 -0.62402,1.370926 l -0.62402,0.624019 0.5909,0.269232 c 0.7724,0.351931 1.16327,1.527749 0.87179,2.622534 -0.33334,1.251905 -1.3202,1.656863 -4.03797,1.656863 h -2.2621 z m 4.92526,3.149714 c 0.20153,-0.167251 0.36641,-0.639948 0.36641,-1.050441 0,-1.073126 -0.85611,-1.570106 -2.70471,-1.570106 h -1.52862 v 1.625758 1.625762 l 1.75026,-0.163441 c 0.96264,-0.08989 1.91514,-0.300284 2.11666,-0.467532 z m -0.42734,-4.208047 c 1.19168,-1.191678 0.20037,-2.38125 -1.98437,-2.38125 h -1.45521 v 1.455208 1.455208 h 1.45521 c 1.10243,0 1.58349,-0.128283 1.98437,-0.529166 z m 3.96875,1.058333 c 0,-4.321527 0.0207,-4.497916 0.52917,-4.497916 0.50564,0 0.52916,0.176389 0.52916,3.968749 v 3.96875 h 2.11667 c 1.94028,0 2.11667,0.0441 2.11667,0.529167 0,0.49389 -0.17639,0.529166 -2.64584,0.529166 h -2.64583 z m 6.87917,-0.0089 v -4.506867 l 2.84113,0.0751 c 2.46034,0.06503 2.85302,0.137155 2.92982,0.538118 0.0792,0.413467 -0.16824,0.463021 -2.31197,0.463021 l -2.40065,-8e-6 v 1.455208 1.455208 h 2.11667 c 1.94027,0 2.11666,0.0441 2.11666,0.529167 0,0.485069 -0.17639,0.529167 -2.11666,0.529167 h -2.11667 v 1.444908 1.444905 l 2.31213,0.07645 c 1.95566,0.06466 2.32577,0.14783 2.40065,0.539467 0.08,0.418425 -0.19366,0.46302 -2.8413,0.46302 h -2.92981 v -4.506867 z m -37.70313,-11.219365 c -0.14552,-0.06033 -1.21708,-0.194966 -2.38125,-0.29919 -2.87425,-0.257321 -1.81936,-0.51171 3.04271,-0.733751 7.70343,-0.3518 12.5153,-1.484545 13.64766,-3.212742 0.38971,-0.594768 0.38658,-0.789565 -0.0392,-2.442546 -0.30284,-1.1756 -0.39808,-2.140781 -0.27564,-2.793421 0.22944,-1.223044 1.4718,-2.686058 2.8994,-3.414366 l 1.06875,-0.545232 -1.17599,-0.393853 c -0.64679,-0.21662 -1.21468,-0.429591 -1.26198,-0.473268 -0.12928,-0.11938 -0.26785,-0.963896 -0.29063,-1.771243 -0.0111,-0.394515 -0.2707,-0.950629 -0.57681,-1.235813 l -0.55655,-0.518512 0.82114,-0.424629 c 0.45163,-0.233548 0.82114,-0.488797 0.82114,-0.567225 0,-0.367032 -1.14685,-2.754233 -1.32319,-2.754233 -0.10983,0 -0.64382,0.185568 -1.18664,0.412374 -0.54282,0.226807 -1.03946,0.359866 -1.10363,0.295688 -0.0642,-0.06418 0.36458,-0.672756 0.95281,-1.352399 1.82723,-2.111195 1.85635,-2.478064 0.0988,-1.245256 -2.43498,1.708039 -2.21157,1.297096 0.56313,-1.035858 1.39444,-1.17244 2.73741,-2.4401 2.98438,-2.81701 0.44733,-0.68273 0.44411,-0.68976 -0.85426,-1.86526 l -1.3033,-1.17995 -1.82123,1.94644 c -1.00167,1.07054 -1.7798,1.81773 -1.72918,1.66041 0.0506,-0.15731 0.55588,-1.31483 1.12279,-2.57227 0.85433,-1.89497 0.97331,-2.35544 0.6952,-2.69053 -0.18453,-0.22236 -0.47228,-0.40429 -0.63942,-0.40429 -0.16715,0 -1.41927,2.24065 -2.78249,4.97923 l -2.47859,4.979224 -2.01376,0.968941 c -1.36141,0.655055 -2.65388,1.051827 -3.98977,1.224801 -1.0868,0.140724 -2.0212,0.210658 -2.07645,0.155408 -0.0553,-0.05525 1.16137,-0.695653 2.70361,-1.423122 1.54223,-0.727469 2.80406,-1.36602 2.80406,-1.419003 0,-0.126682 -2.53324,-2.057149 -2.69948,-2.057149 -0.0706,0 -0.70409,0.71791 -1.40787,1.595361 -0.70378,0.877449 -1.68559,1.846281 -2.1818,2.152957 -0.86245,0.533022 -6.10292,1.939473 -6.34067,1.701723 -0.0628,-0.06279 0.40175,-0.34925 1.03231,-0.636579 5.00886,-2.282426 5.42176,-2.526258 7.15111,-4.222982 1.97936,-1.94201 1.57094,-1.94242 3.96137,0.004 1.23388,1.004698 1.23541,1.005114 2.13224,0.577444 0.79003,-0.37674 1.20551,-1.044994 3.47034,-5.581734 l 2.57285,-5.15376 3.25342,3.05235 c 3.14083,2.94673 3.27359,3.03823 3.83616,2.64419 0.57459,-0.40246 0.60321,-0.36435 2.04715,2.72605 l 1.46442,3.134197 3.02444,2.112232 c 2.86192,1.998726 3.01813,2.154886 2.9069,2.905982 -0.0647,0.436563 -0.14306,1.527194 -0.17424,2.423626 l -0.0567,1.629875 -2.03068,0.179756 c -1.11688,0.09887 -2.16572,0.263215 -2.33077,0.365217 -0.20942,0.129429 -0.0989,0.581898 0.36581,1.497661 0.54848,1.080833 0.59593,1.326859 0.26909,1.395352 -0.31817,0.06667 -0.2365,0.379454 0.4121,1.578305 0.51808,0.957596 0.69989,1.531491 0.5057,1.596221 -0.22734,0.07578 -0.22679,0.193159 0.002,0.469085 0.41367,0.498438 -0.4352,0.836544 -1.08361,0.431607 -0.25608,-0.159922 -0.54435,-0.212016 -0.6406,-0.115761 -0.22819,0.228193 -2.06711,0.07643 -2.34831,-0.193807 -0.11952,-0.114861 0.0913,-0.451554 0.46839,-0.74821 0.37714,-0.296653 0.55568,-0.582713 0.39676,-0.635688 -0.17511,-0.05837 -0.078,-0.364545 0.24666,-0.777221 0.34811,-0.442548 0.44525,-0.771263 0.2775,-0.939014 -0.16775,-0.167754 -0.11705,-0.595704 0.14484,-1.222494 0.22162,-0.530413 0.40295,-1.275329 0.40295,-1.655369 0,-0.640881 -0.0623,-0.67765 -0.8599,-0.507158 -2.14707,0.458975 -5.00936,1.520637 -5.72642,2.124006 -1.15729,0.973796 -1.44788,2.093661 -0.96034,3.700915 0.21845,0.72014 0.39847,1.811218 0.40005,2.424617 0.005,1.931183 -1.86625,3.498038 -5.35652,4.485291 -1.29688,0.366831 -10.24532,0.777938 -10.9125,0.501338 z m 23.68021,-15.387618 c 0,-0.08668 -0.24623,-0.503396 -0.54718,-0.926041 -0.50917,-0.715063 -0.40834,-1.051844 0.16353,-0.546209 0.13825,0.122235 0.69599,0.487984 1.23942,0.812784 l 0.98807,0.59054 -0.80721,-1.534526 c -0.46585,-0.885602 -0.6893,-1.573828 -0.52839,-1.627462 0.15334,-0.05111 0.93516,0.207552 1.73737,0.574815 2.83683,1.298744 1.22123,-0.500345 -2.35225,-2.619404 -2.39405,-1.419664 -2.72866,-1.719937 -3.8772,-3.479326 l -1.25702,-1.925568 -1.2088,2.133565 -1.2088,2.133565 0.75201,1.499495 c 1.16149,2.315956 1.19665,2.554586 0.42796,2.904825 -0.5273,0.240253 -0.66526,0.496338 -0.66526,1.234827 v 0.931714 h 3.57188 c 1.96453,0 3.57187,-0.07092 3.57187,-0.157594 z m -22.21676,12.262281 c -0.20434,-0.508381 -0.24173,-0.52238 -0.25605,-0.09586 -0.0152,0.45113 -0.16361,0.482193 -1.53457,0.321064 -0.83478,-0.09811 -1.62031,-0.280911 -1.74561,-0.406215 -0.12738,-0.127381 0.20071,-0.51903 0.74417,-0.88832 0.58102,-0.394811 0.8556,-0.732427 0.68263,-0.839332 -0.19306,-0.119317 -0.11125,-0.405286 0.2458,-0.859208 0.40346,-0.512908 0.46307,-0.767265 0.24218,-1.033412 -0.21697,-0.261438 -0.183,-0.675876 0.13094,-1.597229 0.23316,-0.684302 0.42394,-1.520634 0.42394,-1.858513 0,-0.990856 0.36934,-0.715441 1.1355,0.846744 0.83961,1.71192 0.83996,1.713931 0.30201,1.713931 -0.32398,0 -0.20895,0.387236 0.52638,1.772041 0.66624,1.254684 0.85018,1.828147 0.63003,1.964209 -0.23291,0.143944 -0.21988,0.301889 0.0519,0.629375 0.30829,0.371467 0.30573,0.473347 -0.017,0.677571 -0.65768,0.416161 -1.31414,0.270418 -1.56225,-0.346842 z m 5.6953,-0.25731 c -0.33855,-0.483359 -0.41187,-0.50691 -0.41187,-0.132292 0,0.493586 -0.82318,0.595382 -2.34818,0.290383 -1.06581,-0.213161 -1.04212,-0.463007 0.11865,-1.251778 0.52479,-0.3566 0.80105,-0.690613 0.62089,-0.750668 -0.23946,-0.07982 -0.20829,-0.285718 0.11885,-0.784997 0.2439,-0.372237 0.37939,-0.843757 0.30108,-1.047822 -0.0783,-0.204062 0.0798,-1.245925 0.35137,-2.315247 l 0.49374,-1.944224 0.55119,0.891852 c 0.91171,1.475166 1.15315,2.293578 0.7052,2.39041 -0.29904,0.06464 -0.17892,0.490074 0.54214,1.919962 0.50948,1.010301 0.92632,1.873504 0.92632,1.918229 0,0.04472 -0.19705,0.08131 -0.43789,0.08131 -0.40339,0 -0.40249,0.0391 0.0114,0.496475 0.41145,0.454647 0.41308,0.510379 0.0194,0.661458 -0.74881,0.287348 -1.13863,0.181785 -1.56228,-0.423055 z m -14.16769,-8.139678 -0.56268,-0.790218 0.56048,-1.537174 c 0.60792,-1.667282 0.18776,-1.331161 6.26428,-5.011369 0.77458,-0.469117 1.40832,-0.737008 1.40832,-0.595313 0,0.141693 0.71437,0.257625 1.5875,0.257625 0.87312,0 1.5875,0.05872 1.5875,0.130501 0,0.07177 -0.50602,0.786587 -1.12448,1.588476 -0.82602,1.071001 -2.15433,2.159973 -5.00456,4.102832 -2.13404,1.454672 -3.94163,2.644857 -4.01687,2.644857 -0.0753,0 -0.39002,-0.355597 -0.69949,-0.790217 z m 17.4478,-3.519088 c 1.36897,-1.558944 2.51576,-2.834444 2.54841,-2.834444 0.18279,0 -0.77518,3.09159 -1.0348,3.339541 -0.17094,0.163261 -1.14147,0.75415 -2.15673,1.313093 l -1.84593,1.016254 z m -6.93839,0.978831 c 0.45917,-0.569333 1.15376,-1.392338 1.54352,-1.8289 0.38975,-0.436563 1.54369,-1.779829 2.56431,-2.985035 1.77444,-2.095373 2.44454,-2.614049 1.78495,-1.381601 -0.30274,0.565669 -0.28592,0.571101 1.23534,0.398963 l 1.54225,-0.174514 -0.66146,0.555037 c -0.89071,0.747401 -7.07765,5.310997 -8.06003,5.945217 l -0.78374,0.505981 z m -102.8511,-59.045043 -4.1e-4,-1.38906 1.38906,4.1e-4 1.38906,4.1e-4 -0.92604,0.46261 c -0.52979,0.26466 -1.12399,0.85886 -1.38865,1.38865 l -0.46261,0.92604 z m 216.89347,-0.45271 c -0.25372,-0.34898 -0.72997,-0.68622 -1.05833,-0.7494 -0.32835,-0.0632 -0.091,-0.1311 0.52747,-0.15092 1.08104,-0.0346 1.12448,-0.005 1.12448,0.75772 0,0.94796 -0.007,0.94962 -0.59362,0.1426 z"
       id="path363"
       clip-path="url(#clipPath411)"
       inkscape:export-filename="path363.svg"
       inkscape:export-xdpi="96"
       inkscape:export-ydpi="96" /></g></svg>
