<?xml version="1.0" encoding="UTF-8" standalone="no"?>
<!-- Created with Inkscape (http://www.inkscape.org/) -->

<svg
   width="94.786133mm"
   height="94.786133mm"
   viewBox="0 0 94.786133 94.786133"
   version="1.1"
   id="svg5"
   xml:space="preserve"
   inkscape:version="1.2.2 (732a01da63, 2022-12-09)"
   sodipodi:docname="logo.svg"
   xmlns:inkscape="http://www.inkscape.org/namespaces/inkscape"
   xmlns:sodipodi="http://sodipodi.sourceforge.net/DTD/sodipodi-0.dtd"
   xmlns="http://www.w3.org/2000/svg"
   xmlns:svg="http://www.w3.org/2000/svg"><sodipodi:namedview
     id="namedview7"
     pagecolor="#ffffff"
     bordercolor="#000000"
     borderopacity="0.25"
     inkscape:showpageshadow="2"
     inkscape:pageopacity="0.0"
     inkscape:pagecheckerboard="0"
     inkscape:deskcolor="#d1d1d1"
     inkscape:document-units="mm"
     showgrid="false"
     inkscape:zoom="0.83044602"
     inkscape:cx="-2289.7334"
     inkscape:cy="-187.24878"
     inkscape:window-width="1920"
     inkscape:window-height="991"
     inkscape:window-x="-9"
     inkscape:window-y="291"
     inkscape:window-maximized="1"
     inkscape:current-layer="layer1" /><defs
     id="defs2"><clipPath
       clipPathUnits="userSpaceOnUse"
       id="clipPath1181"><circle
         style="fill:none;stroke:#000000;stroke-width:0.264583"
         id="circle1183"
         cx="-555.55768"
         cy="-73.443558"
         r="30.188456" /></clipPath></defs><g
     inkscape:label="Layer 1"
     inkscape:groupmode="layer"
     id="layer1"
     transform="translate(664.93001,124.65986)"><path
       style="fill:#a88b7d;fill-opacity:1;stroke:#a88b7d;stroke-width:0.317753;stroke-opacity:1"
       d="m -683.81416,28.002347 c 0.0181,-1.217837 0.051,-1.273085 0.33448,-0.562601 0.17289,0.433317 0.54347,1.04102 0.82349,1.350451 0.47501,0.524877 0.45259,0.562601 -0.33447,0.562601 -0.78384,0 -0.84221,-0.09573 -0.8235,-1.350451 z m 260.21977,1.23048 c 0,-0.06598 0.21448,-0.297973 0.47664,-0.515535 0.39036,-0.323972 0.47662,-0.30226 0.47662,0.11997 0,0.283544 -0.21448,0.515536 -0.47662,0.515536 -0.26216,0 -0.47664,-0.05399 -0.47664,-0.119971 z M -561.81705,2.6740267 c -25.88229,-4.004253 -45.96325,-23.6981477 -50.71851,-49.7408827 -0.45035,-2.466362 -0.58226,-4.813224 -0.58942,-10.485856 -0.0108,-8.330349 0.44427,-11.389704 2.73964,-18.429688 7.31249,-22.427734 27.29109,-38.78365 50.63368,-41.45238 3.6652,-0.41904 10.31595,-0.41904 13.98115,0 12.91989,1.47711 25.14691,7.21944 34.70554,16.29921 20.92826,19.879804 24.91384,52.28549 9.40043,76.432343 -9.85183,15.334508 -26.0704,25.47642193 -44.25651,27.6747788 -4.07697,0.4928284 -11.71095,0.3499445 -15.896,-0.2975251 z m 16.52316,-3.01142773 c 27.51033,-3.66506427 48.48722,-26.43617897 49.77993,-54.03777897 0.89768,-19.166821 -7.62323,-37.291279 -22.92789,-48.76893 -21.06426,-15.79702 -49.99876,-15.19405 -70.59886,1.47124 -10.36289,8.383498 -17.49676,20.196946 -20.14238,33.355132 -1.42723,7.098448 -1.13739,17.813167 0.67525,24.962247 5.78913,22.832453 24.74033,39.8218169 47.9618,42.99678259 4.06114,0.55526015 11.16972,0.56519086 15.25215,0.021317 z M -564.51796,-53.402068 c -0.17476,-0.07245 -1.46166,-0.234146 -2.85978,-0.359315 -3.45185,-0.309031 -2.18497,-0.614541 3.65417,-0.881203 9.25149,-0.422497 15.03034,-1.782875 16.39025,-3.858366 0.46803,-0.714291 0.46427,-0.948234 -0.0471,-2.933393 -0.3637,-1.411845 -0.47808,-2.570986 -0.33104,-3.354779 0.27555,-1.468823 1.76757,-3.225841 3.48206,-4.100507 l 1.28352,-0.654801 -1.41231,-0.473 c -0.77677,-0.260151 -1.45878,-0.51592 -1.51558,-0.568375 -0.15526,-0.14337 -0.32168,-1.157597 -0.34904,-2.127187 -0.0133,-0.473795 -0.3251,-1.141664 -0.69272,-1.484158 l -0.6684,-0.622711 0.98616,-0.509961 c 0.54239,-0.280481 0.98615,-0.587024 0.98615,-0.681213 0,-0.44079 -1.37732,-3.307716 -1.58909,-3.307716 -0.1319,0 -0.7732,0.222859 -1.42511,0.495244 -0.6519,0.272385 -1.24834,0.432183 -1.32541,0.355108 -0.0771,-0.07708 0.43785,-0.807951 1.14429,-1.624173 2.19442,-2.535455 2.22939,-2.976049 0.11865,-1.495499 -2.92431,2.051282 -2.656,1.557757 0.6763,-1.244021 1.67466,-1.40805 3.28751,-2.930456 3.58411,-3.383109 0.53722,-0.819929 0.53335,-0.828372 -1.02593,-2.240097 l -1.56521,-1.417069 -2.18722,2.337591 c -1.20296,1.285672 -2.13746,2.183016 -2.07667,1.994081 0.0608,-0.188923 0.66759,-1.579055 1.34842,-3.089186 1.02602,-2.275778 1.16891,-2.828786 0.83491,-3.231215 -0.22161,-0.267045 -0.56719,-0.485535 -0.76792,-0.485535 -0.20074,0 -1.70448,2.690928 -3.34165,5.979846 l -2.97668,5.979834 -2.41844,1.163657 c -1.63499,0.786693 -3.1872,1.263199 -4.79154,1.470934 -1.3052,0.169003 -2.42738,0.252991 -2.49373,0.186638 -0.0664,-0.06635 1.39476,-0.83545 3.24692,-1.709109 1.85215,-0.873659 3.36756,-1.640531 3.36756,-1.704162 0,-0.152139 -3.04232,-2.470547 -3.24196,-2.470547 -0.0848,0 -0.84559,0.862179 -1.69079,1.91596 -0.84521,1.053779 -2.02433,2.217304 -2.62025,2.585609 -1.03577,0.640137 -7.32935,2.329224 -7.61488,2.043696 -0.0754,-0.07541 0.48249,-0.419434 1.23976,-0.764504 6.01543,-2.741096 6.51131,-3.033927 8.58818,-5.07162 2.37713,-2.332271 1.88663,-2.332763 4.75744,0.0048 1.48183,1.206599 1.48367,1.207099 2.56073,0.693485 0.94879,-0.452448 1.44776,-1.254993 4.16772,-6.703423 l 3.08989,-6.189449 3.90722,3.665745 c 3.772,3.538897 3.93144,3.648784 4.60706,3.175559 0.69006,-0.483337 0.72443,-0.437569 2.45854,3.27387 l 1.7587,3.764036 3.63223,2.5367 c 3.43704,2.400384 3.62464,2.587926 3.49106,3.48996 -0.0777,0.524293 -0.17181,1.834095 -0.20925,2.910671 l -0.0681,1.95741 -2.43876,0.215879 c -1.34132,0.118739 -2.60094,0.31611 -2.79915,0.43861 -0.25151,0.155439 -0.11878,0.698835 0.43932,1.798627 0.6587,1.298034 0.71568,1.593501 0.32316,1.675758 -0.3821,0.08007 -0.28402,0.455708 0.49492,1.895477 0.62219,1.150031 0.84054,1.839255 0.60732,1.916993 -0.27302,0.09101 -0.27236,0.231975 0.002,0.563351 0.4968,0.598602 -0.52265,1.004653 -1.30136,0.518341 -0.30755,-0.192059 -0.65375,-0.254622 -0.76934,-0.139024 -0.27404,0.27405 -2.48251,0.09179 -2.82022,-0.232754 -0.14354,-0.137943 0.10965,-0.542297 0.56252,-0.898568 0.45293,-0.356267 0.66735,-0.699813 0.47649,-0.763434 -0.2103,-0.0701 -0.0937,-0.437803 0.29623,-0.933409 0.41806,-0.531481 0.53472,-0.926254 0.33326,-1.127716 -0.20146,-0.201465 -0.14057,-0.715415 0.17395,-1.468163 0.26616,-0.637003 0.48393,-1.531615 0.48393,-1.988027 0,-0.76967 -0.0748,-0.813828 -1.03271,-0.609075 -2.57854,0.551209 -6.01602,1.82622 -6.87718,2.55084 -1.38986,1.169488 -1.73884,2.514398 -1.15333,4.444641 0.26235,0.864857 0.47855,2.175195 0.48044,2.911861 0.006,2.319268 -2.24128,4.200994 -6.43295,5.386642 -1.55749,0.440549 -12.30419,0.934271 -13.10544,0.602086 z m 28.43892,-18.479871 c 0,-0.104098 -0.29571,-0.604557 -0.65714,-1.112135 -0.61149,-0.85876 -0.4904,-1.26322 0.19639,-0.655974 0.16604,0.146799 0.83586,0.586048 1.4885,0.976119 l 1.18662,0.709213 -0.96942,-1.8429 c -0.55947,-1.06357 -0.82782,-1.8901 -0.63457,-1.954512 0.18415,-0.06138 1.12308,0.249261 2.0865,0.690328 3.40691,1.559736 1.46665,-0.600893 -2.82495,-3.145792 -2.87515,-1.704955 -3.277,-2.06557 -4.65635,-4.178521 l -1.50963,-2.312525 -1.45171,2.56232 -1.45172,2.56232 0.90313,1.80083 c 1.3949,2.781364 1.43713,3.067948 0.51396,3.48857 -0.63326,0.288534 -0.79895,0.596081 -0.79895,1.482975 v 1.118948 h 4.28968 c 2.35932,0 4.28966,-0.08517 4.28966,-0.189264 z m -26.68138,14.726475 c -0.2454,-0.610544 -0.2903,-0.627356 -0.3075,-0.115124 -0.0183,0.541788 -0.19649,0.579093 -1.84295,0.385584 -1.00254,-0.117826 -1.94593,-0.337362 -2.09641,-0.487847 -0.15297,-0.152979 0.24105,-0.623332 0.89372,-1.066834 0.69778,-0.474151 1.02754,-0.879613 0.81981,-1.008002 -0.23186,-0.143294 -0.13361,-0.486731 0.29519,-1.031872 0.48454,-0.61598 0.55613,-0.921452 0.29085,-1.241083 -0.26057,-0.313976 -0.21977,-0.811698 0.15726,-1.918204 0.28001,-0.821817 0.50913,-1.826216 0.50913,-2.231994 0,-1.189976 0.44356,-0.859214 1.36369,1.016903 1.00833,2.055942 1.00875,2.058358 0.3627,2.058358 -0.38909,0 -0.25094,0.465053 0.63216,2.128145 0.80012,1.506822 1.02103,2.195526 0.75664,2.358931 -0.27972,0.17287 -0.26407,0.362556 0.0623,0.755852 0.37024,0.446116 0.36716,0.56847 -0.0204,0.813734 -0.78985,0.499792 -1.57823,0.32476 -1.8762,-0.416542 z m 6.83982,-0.309018 c -0.40659,-0.580494 -0.49464,-0.608778 -0.49464,-0.158878 0,0.592776 -0.98861,0.715029 -2.82007,0.348738 -1.27999,-0.255997 -1.25154,-0.556052 0.1425,-1.503332 0.63025,-0.428261 0.96202,-0.829396 0.74566,-0.90152 -0.28758,-0.09586 -0.25015,-0.343135 0.14273,-0.942748 0.29292,-0.44704 0.45564,-1.013316 0.36159,-1.258389 -0.094,-0.24507 0.0958,-1.496303 0.42198,-2.780512 l 0.59296,-2.33493 0.66195,1.071076 c 1.09493,1.771611 1.38489,2.754489 0.84692,2.87078 -0.35913,0.07763 -0.21488,0.588558 0.65109,2.305792 0.61186,1.213328 1.11247,2.249998 1.11247,2.303711 0,0.05371 -0.23665,0.09765 -0.52589,0.09765 -0.48445,0 -0.48337,0.04696 0.0137,0.596245 0.49413,0.546011 0.49609,0.612943 0.0233,0.794383 -0.89929,0.345092 -1.36745,0.218316 -1.87623,-0.508071 z m -17.01479,-9.775405 -0.67576,-0.949018 0.67312,-1.84608 c 0.73008,-2.002335 0.22549,-1.598668 7.52313,-6.01844 0.93023,-0.563389 1.69133,-0.885115 1.69133,-0.714945 0,0.170167 0.85793,0.309396 1.90652,0.309396 1.04858,0 1.90652,0.07052 1.90652,0.156726 0,0.08619 -0.60771,0.944658 -1.35045,1.907692 -0.99202,1.286226 -2.58726,2.594035 -6.01027,4.927326 -2.56289,1.746998 -4.73373,3.17636 -4.82409,3.17636 -0.0904,0 -0.46839,-0.427057 -0.84005,-0.949017 z m 20.95406,-4.226274 c 1.64407,-1.872225 3.02132,-3.404046 3.06053,-3.404046 0.21952,0 -0.93096,3.712867 -1.24275,4.010646 -0.20529,0.196069 -1.37086,0.905702 -2.59014,1.576968 l -2.21688,1.220478 z m -8.33271,1.175534 c 0.55144,-0.683745 1.38561,-1.672138 1.8537,-2.196431 0.46807,-0.524293 1.85391,-2.137498 3.07963,-3.584899 2.13102,-2.516453 2.93578,-3.139361 2.14364,-1.659243 -0.36357,0.679344 -0.34337,0.685867 1.4836,0.479137 l 1.85217,-0.209584 -0.79438,0.666576 c -1.06971,0.897596 -8.49996,6.37828 -9.67975,7.139951 l -0.94124,0.607661 z m -123.51977,-70.910573 -4.9e-4,-1.6682 1.6682,4.9e-4 1.6682,4.9e-4 -1.11213,0.55558 c -0.63626,0.31784 -1.34987,1.03145 -1.66771,1.66771 l -0.55558,1.11213 z m 260.47977,-0.54368 c -0.30471,-0.41911 -0.87666,-0.82412 -1.27101,-0.9 -0.39433,-0.0759 -0.10929,-0.15745 0.63347,-0.18125 1.29828,-0.0416 1.35045,-0.006 1.35045,0.90999 0,1.13846 -0.008,1.14045 -0.71291,0.17126 z"
       id="path363"
       sodipodi:nodetypes="sssssssssssscsssssssssssssssscsssssscsssscsssssssssscsssssscsssssssssssssscssscssscsssssscssssssssssssssccsssscssssscccssscsssssssssssssssssssssssssssscsssssssssscssssssssssssscsssssscsscsccccssccsssss"
       clip-path="url(#clipPath1181)"
       transform="matrix(1.5699069,0,0,1.5699069,254.63686,38.032746)" /><circle
       style="fill:none;stroke:#a88b7d;stroke-width:2;stroke-dasharray:none;stroke-opacity:1"
       id="path1185"
       cx="-614.35095"
       cy="-77.2668"
       r="42.692921" /></g></svg>
