<?xml version="1.0" encoding="UTF-8" standalone="no"?>
<!-- Created with Inkscape (http://www.inkscape.org/) -->

<svg
   width="206.84482mm"
   height="207.76537mm"
   viewBox="0 0 206.84482 207.76537"
   version="1.1"
   id="svg11931"
   inkscape:version="1.2.2 (732a01da63, 2022-12-09)"
   sodipodi:docname="table-himalaya.svg"
   inkscape:export-filename="table-himalaya.svg"
   inkscape:export-xdpi="96"
   inkscape:export-ydpi="96"
   xmlns:inkscape="http://www.inkscape.org/namespaces/inkscape"
   xmlns:sodipodi="http://sodipodi.sourceforge.net/DTD/sodipodi-0.dtd"
   xmlns="http://www.w3.org/2000/svg"
   xmlns:svg="http://www.w3.org/2000/svg">
  <sodipodi:namedview
     id="namedview11933"
     pagecolor="#ffffff"
     bordercolor="#000000"
     borderopacity="0.25"
     inkscape:showpageshadow="2"
     inkscape:pageopacity="0.0"
     inkscape:pagecheckerboard="0"
     inkscape:deskcolor="#d1d1d1"
     inkscape:document-units="mm"
     showgrid="false"
     inkscape:zoom="0.50646226"
     inkscape:cx="398.84512"
     inkscape:cy="522.25017"
     inkscape:window-width="1920"
     inkscape:window-height="991"
     inkscape:window-x="-9"
     inkscape:window-y="291"
     inkscape:window-maximized="1"
     inkscape:current-layer="layer1" />
  <defs
     id="defs11928">
    <clipPath
       clipPathUnits="userSpaceOnUse"
       id="clipPath11751">
      <path
         style="fill:none;fill-opacity:1;stroke:#000000;stroke-width:0;stroke-dasharray:none"
         d="m -770.06979,58.472917 25.59844,-14.519011 25.5819,14.452865 -0.24805,21.894271 -25.20156,14.552083 -25.73073,-13.559896 z"
         id="path11753" />
    </clipPath>
  </defs>
  <g
     inkscape:label="Layer 1"
     inkscape:groupmode="layer"
     id="layer1"
     transform="translate(-0.50284041,-42.131545)">
    <g
       id="g15923"
       transform="matrix(1.0643998,0,0,1.0643998,-6.1367032,5.6102872)"
       inkscape:export-filename=".\table-himalaya-custom.svg"
       inkscape:export-xdpi="96"
       inkscape:export-ydpi="96">
      <g
         id="g13539"
         transform="matrix(3.0236038,0,0,3.0236038,2795.2939,-80.188893)">
        <g
           id="g11643"
           transform="matrix(1.0206785,0,0,1.0698718,-130.14641,-4.0591743)"
           clip-path="url(#clipPath11751)">
          <g
             id="g10806"
             transform="matrix(0.89265232,0,0,0.62978113,16.768592,73.050867)">
            <rect
               style="fill:#e36d40;fill-opacity:1;stroke-width:0.216085"
               id="rect3090"
               width="63.080349"
               height="10.518594"
               x="-884.2514"
               y="-19.297369" />
            <rect
               style="fill:#dc4d3d;fill-opacity:1;stroke-width:0.232706"
               id="rect3092"
               width="63.080349"
               height="12.199072"
               x="-884.2514"
               y="-8.8901758" />
            <rect
               style="fill:#eda64d;fill-opacity:1;stroke-width:0.213916"
               id="rect3094"
               width="63.080349"
               height="10.308534"
               x="-884.2514"
               y="-39.41087" />
            <rect
               style="fill:#e78c46;fill-opacity:1;stroke-width:0.209512"
               id="rect3096"
               width="63.080349"
               height="9.8884144"
               x="-884.2514"
               y="-29.152212" />
            <rect
               style="fill:#eebc7a;fill-opacity:1;stroke-width:0.155927"
               id="rect3098"
               width="63.080349"
               height="5.4771595"
               x="-884.2514"
               y="-44.792862" />
          </g>
        </g>
        <path
           style="fill:#26554f;fill-opacity:1;stroke-width:0.264583"
           d="m -897.98995,97.907119 c -6.44327,-3.793307 -11.04268,-6.479844 -13.32434,-7.782798 -3.30608,-1.887958 -4.00587,-2.38442 -4.00587,-2.841916 0,-0.381574 -0.15777,-0.482677 -0.65257,-0.418166 -0.40912,0.05334 -1.53917,-0.40844 -3.02916,-1.237835 l -2.3766,-1.322917 0.021,-1.256771 c 0.0124,-0.743728 0.14193,-1.253336 0.31719,-1.248357 0.47664,0.01355 1.2222,0.678776 1.2222,1.090517 0,0.208826 1.75306,1.404433 3.90261,2.661611 2.14643,1.255361 6.58151,3.85885 9.85573,5.78553 6.38529,3.757362 7.01757,4.127847 12.35369,7.238784 l 3.49016,2.034739 2.59526,-1.51192 c 6.70582,-3.906618 10.44728,-6.098297 15.82442,-9.269648 3.20146,-1.888173 7.04122,-4.139095 8.53281,-5.002049 1.49159,-0.862955 2.71198,-1.737122 2.71198,-1.942595 0,-0.420875 0.75445,-1.072187 1.25677,-1.084969 0.21651,-0.0055 0.33073,0.400021 0.33073,1.174248 v 1.182663 l -3.24115,1.90046 c -1.78263,1.045255 -4.07458,2.400829 -5.09323,3.01239 -1.01864,0.611558 -5.18583,3.05158 -9.26041,5.422268 -4.07459,2.370688 -8.78821,5.126353 -10.47472,6.123702 -1.68651,0.99734 -3.11526,1.81266 -3.175,1.81181 -0.0597,-8.5e-4 -3.56143,-2.0343 -7.78153,-4.518781 z m 31.35312,-9.767173 c 0,-0.145521 -0.0525,-0.264584 -0.11667,-0.264584 -0.0642,0 -0.19027,0.119063 -0.2802,0.264584 -0.0899,0.145521 -0.0374,0.264583 0.11667,0.264583 0.15411,0 0.2802,-0.119062 0.2802,-0.264583 z m -34.39583,3.518535 c -5.8936,-3.419893 -13.09688,-7.587798 -16.00729,-9.262007 -2.91042,-1.67421 -5.33136,-3.080973 -5.37986,-3.12614 -0.0485,-0.04517 0.13008,-0.307581 0.39687,-0.583136 0.26679,-0.275556 1.97335,-2.090553 3.79236,-4.033325 1.81901,-1.942772 3.59332,-3.801176 3.9429,-4.129786 l 0.63561,-0.597472 1.74282,1.169165 c 0.95855,0.643041 1.86315,1.167474 2.01022,1.16541 0.14708,-0.0021 1.81522,-2.154724 3.70699,-4.783688 2.00772,-2.790097 4.01607,-5.273765 4.8244,-5.966201 0.91168,-0.780968 2.52529,-2.860048 4.72287,-6.085253 2.9673,-4.354872 3.3741,-4.845224 3.66268,-4.414941 2.71799,4.052692 5.40362,8.73336 6.15216,10.722349 0.71889,1.910191 1.18234,2.694517 2.2221,3.760558 l 1.31376,1.346972 0.77631,-0.926041 c 0.42697,-0.509323 0.98724,-1.312995 1.24504,-1.785938 0.2578,-0.472943 0.5538,-0.859896 0.65777,-0.859896 0.10398,0 1.47588,1.536118 3.04869,3.413599 2.85596,3.409204 2.86283,3.415062 5.34076,4.551802 2.3747,1.089387 2.5324,1.215324 3.67684,2.936401 0.65764,0.98901 1.32926,1.798199 1.49248,1.798199 0.16322,0 0.86868,-0.472607 1.56769,-1.050235 l 1.27093,-1.050234 2.03151,1.686557 c 3.18141,2.641204 4.15872,3.527587 4.01589,3.642284 -0.1351,0.108484 -1.43922,0.925351 -6.35,3.977481 -1.52797,0.949656 -4.50453,2.709887 -6.61458,3.911619 -2.11006,1.201735 -5.74146,3.28739 -8.0698,4.634791 -2.32833,1.347401 -4.88817,2.809293 -5.68854,3.248652 -0.80036,0.439359 -2.28675,1.284984 -3.30309,1.879169 -1.01634,0.594183 -1.90931,1.068396 -1.98438,1.053807 -0.0751,-0.01459 -4.95852,-2.824626 -10.85211,-6.244522 z m 12.43542,-5.448242 c 0.28555,0.08484 0.30591,0.05334 0.0726,-0.112305 -0.23222,-0.164859 0.22729,-0.827818 1.61861,-2.335247 l 1.9429,-2.105033 2.59942,0.853154 c 1.42968,0.469233 2.64417,0.8084 2.69887,0.7537 0.0547,-0.0547 -0.0872,-0.728117 -0.31543,-1.496489 -0.55298,-1.862111 -0.54348,-1.900449 0.4186,-1.689142 0.96192,0.211275 1.01189,0.46976 -0.57706,-2.985286 -0.61904,-1.346068 -1.2615,-2.447396 -1.42768,-2.447396 -0.16617,0 -0.50614,0.327422 -0.75547,0.727604 -0.49445,0.793599 -2.04201,2.637446 -2.04201,2.432958 0,-0.06971 0.83152,-2.736112 1.84783,-5.925339 1.0163,-3.189224 1.80932,-5.837095 1.76227,-5.884156 -0.19128,-0.191273 -1.11403,1.232355 -6.37768,9.839558 -3.02572,4.947709 -5.67439,9.274054 -5.88592,9.614102 -0.7822,1.257395 -0.11519,0.801894 0.99195,-0.6774 0.62913,-0.840602 1.21691,-1.587899 1.3062,-1.66066 0.0893,-0.07276 0.71053,-0.852072 1.38056,-1.731804 1.99944,-2.625206 2.17013,-2.592242 1.1513,0.222332 -0.50267,1.388634 -1.09817,2.965728 -1.32335,3.504653 -0.22518,0.538922 -0.40941,1.162367 -0.40941,1.38543 0,0.363529 0.048,0.363757 0.46302,0.0021 0.25466,-0.221847 0.64161,-0.350297 0.8599,-0.285448 z m 6.48229,-1.509877 c 0.0899,-0.145521 0.0374,-0.264583 -0.11668,-0.264583 -0.15411,0 -0.2802,0.119062 -0.2802,0.264583 0,0.145521 0.0525,0.264584 0.11668,0.264584 0.0642,0 0.19026,-0.119063 0.2802,-0.264584 z m -22.225,-0.79375 c 0.0899,-0.145521 -0.0221,-0.264583 -0.24897,-0.264583 -0.22687,0 -0.41249,0.119062 -0.41249,0.264583 0,0.145521 0.11203,0.264584 0.24897,0.264584 0.13693,0 0.32255,-0.119063 0.41249,-0.264584 z m 3.18271,-8.622935 c 3.14659,-3.578448 5.65928,-6.568057 5.58377,-6.643572 -0.0755,-0.07552 -1.03708,0.408959 -2.13679,1.076611 -1.09972,0.667655 -1.99949,1.163754 -1.99949,1.102448 0,-0.369449 1.14902,-1.96899 1.33281,-1.855399 0.12247,0.07569 0.20796,-0.07332 0.18997,-0.331123 -0.018,-0.257805 0.28688,-0.972389 0.67747,-1.587961 0.3906,-0.615572 0.71017,-1.239147 0.71017,-1.385726 0,-0.146577 -0.68461,0.04062 -1.52135,0.416004 -0.83675,0.375378 -1.68911,0.751062 -1.89413,0.834853 -0.20502,0.08379 0.8963,-1.513176 2.44739,-3.548814 1.5511,-2.035638 2.82017,-3.79495 2.82017,-3.909581 0,-0.114634 -0.29765,-0.133715 -0.66145,-0.04241 -0.36381,0.09131 -0.66146,0.120867 -0.66146,0.06569 0,-0.05518 0.48159,-1.142744 1.07021,-2.416802 0.58862,-1.274056 1.0351,-2.421531 0.99219,-2.549944 -0.0429,-0.12841 -1.14488,1.343835 -2.44881,3.271658 -1.30394,1.927821 -2.97369,4.04091 -3.71057,4.695754 -1.08823,0.967081 -6.8446,8.630123 -10.43495,13.798444 -0.42102,0.606058 -1.18441,1.537468 -1.54465,2.010411 -0.36024,0.472943 -0.54242,0.859896 -0.40485,0.859896 0.13757,0 1.36251,-0.833099 2.72209,-1.851329 1.35958,-1.018231 2.52008,-1.803202 2.57891,-1.74438 0.0588,0.05882 -0.0804,0.469289 -0.30944,0.912149 -0.72321,1.398545 -0.45984,1.438687 1.03883,0.158337 0.80036,-0.683774 1.4552,-1.133092 1.4552,-0.998487 0,0.134606 -0.41671,1.48215 -0.92604,2.994543 -0.92317,2.741277 -1.03329,3.175 -0.80615,3.175 0.0659,0 2.69437,-2.927821 5.84095,-6.506268 z m 33.46208,5.05106 c -0.31351,-0.824579 -0.23684,-0.822563 1.22161,0.03214 0.65095,0.381484 1.24986,0.62729 1.33091,0.546241 0.14865,-0.148654 -3.60026,-5.794886 -4.33671,-6.53151 -0.35267,-0.352748 -0.3813,-0.271846 -0.25752,0.727604 0.14865,1.20024 0.15829,1.375807 -0.89739,0.974431 -0.37327,-0.14192 -0.76507,-0.267028 -0.76507,-0.146037 0,0.329896 3.5967,5.058582 3.84763,5.058582 0.0594,0 -0.005,-0.297656 -0.14346,-0.661458 z m 8.20208,-1.764874 c -0.50932,-0.452824 -1.40229,-1.243103 -1.98437,-1.756175 -0.58209,-0.513072 -1.32576,-1.171432 -1.65261,-1.463024 -0.80109,-0.714682 -0.94333,-0.47226 -0.57685,0.983139 0.29745,1.18128 0.62308,1.544018 0.82968,0.924216 0.0547,-0.164227 0.39188,0.252492 0.7492,0.926042 l 0.64967,1.224634 1.45566,-0.0078 1.45566,-0.0078 -0.92604,-0.82332 z M -919.27457,78.4023 c 0.64696,-0.407871 1.34003,-0.840841 1.54017,-0.962152 0.28926,-0.175329 0.34086,-0.02323 0.25157,0.741582 -0.0618,0.529182 -0.0216,0.962152 0.0892,0.962152 0.11083,0 0.63101,-0.892969 1.15596,-1.984375 0.93366,-1.941164 1.28253,-2.320536 1.5207,-1.653646 0.21532,0.60289 0.44091,0.05483 0.84348,-2.049214 0.40573,-2.120546 0.34161,-2.714705 -0.21152,-1.959965 -0.17001,0.231969 -1.33168,1.541468 -2.58151,2.910002 -4.76632,5.219025 -4.91858,5.452293 -2.60804,3.995616 z m 28.29608,-3.079261 c 0,-0.06417 -0.11907,-0.190262 -0.26459,-0.280199 -0.14552,-0.08994 -0.26458,-0.03743 -0.26458,0.116676 0,0.154109 0.11906,0.280199 0.26458,0.280199 0.14552,0 0.26459,-0.0525 0.26459,-0.116676 z m 10.84791,-5.968741 c 0,-0.145521 -0.11906,-0.264583 -0.26458,-0.264583 -0.14552,0 -0.26458,0.119062 -0.26458,0.264583 0,0.145521 0.11906,0.264583 0.26458,0.264583 0.14552,0 0.26458,-0.119062 0.26458,-0.264583 z m -13.75833,-7.672917 c 0,-0.145521 -0.11906,-0.264583 -0.26459,-0.264583 -0.14552,0 -0.26458,0.119062 -0.26458,0.264583 0,0.145521 0.11906,0.264583 0.26458,0.264583 0.14553,0 0.26459,-0.119062 0.26459,-0.264583 z m 33.93281,13.844477 -0.59531,-0.415269 v -9.458688 -9.458685 l -2.97656,-1.665272 c -1.63711,-0.9159 -3.75047,-2.105364 -4.69636,-2.643251 -1.95669,-1.11269 -4.86598,-2.752381 -8.33437,-4.697301 -1.30969,-0.734414 -4.58391,-2.579381 -7.27604,-4.099928 -7.18415,-4.057682 -6.24808,-3.73689 -7.94689,-2.72342 -1.33764,0.798007 -3.41566,1.970925 -14.93957,8.432473 -5.0521,2.832747 -7.37782,4.143811 -10.64948,6.003345 l -2.4474,1.391041 v 9.045737 9.04574 l -0.79375,0.76046 -0.79375,0.76046 V 65.608348 c 0,-9.540687 0.031,-10.223053 0.48386,-10.632835 0.26612,-0.240837 0.55956,-0.437882 0.65209,-0.437882 0.0925,0 1.27379,-0.631733 2.625,-1.403851 1.35122,-0.772117 3.70692,-2.103879 5.23488,-2.95947 1.52797,-0.85559 4.50454,-2.532534 6.61459,-3.726542 8.60851,-4.871268 15.37234,-8.578888 15.65051,-8.578888 0.16241,0 2.7499,1.384614 5.74999,3.07692 13.17746,7.433213 14.7169,8.299887 20.80054,11.710283 1.30969,0.73419 2.88376,1.631434 3.49794,1.993874 l 1.11668,0.658984 -0.0153,10.329969 c -0.008,5.681486 -0.0942,10.323728 -0.19065,10.316094 -0.0964,-0.0076 -0.44319,-0.20075 -0.77062,-0.429146 z m -32.34531,-35.804895 c 0,-0.145521 -0.11906,-0.264583 -0.26459,-0.264583 -0.14552,0 -0.26458,0.119062 -0.26458,0.264583 0,0.145521 0.11906,0.264583 0.26458,0.264583 0.14553,0 0.26459,-0.119062 0.26459,-0.264583 z m 28.98745,34.903819 c -0.53489,0.267466 -0.7047,-0.375692 -0.93827,-0.375692 -0.36809,0 -0.40987,-2.323047 -0.31351,-4.526156 l 0.11117,-2.541778 -0.62811,0.177115 -0.62811,0.177114 0.59028,-0.479607 c 0.56183,-0.456494 0.59153,-0.675148 0.61635,-4.537565 0.0143,-2.231877 -0.0131,-4.088442 -0.0611,-4.125698 -0.048,-0.03726 -1.51593,-0.885979 -3.26218,-1.886051 -8.67629,-4.96888 -9.78959,-5.648793 -9.78959,-5.978708 0,-0.201551 -0.29129,-0.360742 -0.67205,-0.367266 -0.36963,-0.0063 -1.97697,-0.766201 -3.57187,-1.688595 -4.90006,-2.833892 -7.9841,-4.517598 -8.27486,-4.517598 -0.15272,0 -4.36362,2.339821 -9.35757,5.199603 -4.99394,2.85978 -10.56818,6.02716 -12.38719,7.03862 -1.81901,1.011457 -3.44828,1.95393 -3.62061,2.094384 -0.48894,1.96136 -0.38622,13.612325 -0.39775,14.701334 l -1.4056,1.099258 -0.13229,-6.076845 c -0.0425,-1.954023 -0.0728,-5.149633 0,-7.10334 l 0.13229,-3.552196 4.36563,-2.487456 c 24.04393,-13.699815 23.01926,-13.157835 23.69344,-12.532182 0.13824,0.128295 3.46604,2.042559 7.3951,4.253921 3.92906,2.211362 7.35509,4.266385 7.61339,4.566719 0.2583,0.300333 0.54302,0.472676 0.6327,0.382988 0.19667,-0.196668 2.91038,1.251929 3.67721,1.962917 0.30042,0.278543 0.71714,0.511077 0.92604,0.516742 0.20891,0.0057 1.03467,0.412443 1.83504,0.903952 0.80036,0.491508 2.08902,1.214281 2.86368,1.606161 0.77467,0.391877 1.46115,0.849752 1.52552,1.017498 0.0644,0.167743 0.0854,3.717054 0.0467,7.887356 -0.0691,7.452236 -0.18706,8.992623 -0.35239,9.075296 z m -52.93224,-8.974651 c 0.0899,-0.145521 -0.0291,-0.264583 -0.26459,-0.264583 -0.23546,0 -0.35452,0.119062 -0.26458,0.264583 0.0899,0.145521 0.209,0.264584 0.26458,0.264584 0.0556,0 0.17465,-0.119063 0.26459,-0.264584 z m 50.66771,6.863552 c 0,-0.15411 0.11906,-0.206614 0.26458,-0.116676 0.14552,0.08994 0.26458,0.216027 0.26458,0.280199 0,0.06417 -0.11906,0.116676 -0.26458,0.116676 -0.14552,0 -0.26458,-0.12609 -0.26458,-0.280199 z m -0.92605,-0.248968 c 0.0899,-0.145521 0.21603,-0.264583 0.2802,-0.264583 0.0642,0 0.11668,0.119062 0.11668,0.264583 0,0.145521 -0.12609,0.264583 -0.2802,0.264583 -0.15411,0 -0.20661,-0.119062 -0.11668,-0.264583 z m -1.98437,-1.058333 c -0.23847,-0.15411 -0.2711,-0.258099 -0.0818,-0.260533 0.17331,-0.0021 0.3887,0.115012 0.47863,0.260533 0.20302,0.328488 0.11143,0.328488 -0.39687,0 z"
           id="path1723"
           sodipodi:nodetypes="ssssscsssssscsssssscsssssssssssssssssscsssssssscsssssssscsssssssssssscsssssssssssssssssssssssssssssssssssssssssssssssssssssssssssssssssssssssssssssccccsssssssssssssssssssssssssssccccssssssscccccssssssssssccsscsssssssscccsssssssssscccsscsssssssssssssssssssssssssssssssss" />
        <path
           style="fill:#ffffff;fill-opacity:1;stroke:none;stroke-width:0;stroke-dasharray:none"
           d="m -3360.7965,320.14259 c 3.4623,-9.42938 6.6355,-18.70741 6.6355,-19.4013 0,-2.1 -2.9327,0.76928 -10.2498,10.028 -4.6084,5.83135 -8.5127,10.46868 -8.6763,10.30517 -0.3045,-0.3046 28.9443,-50.30835 37.5709,-63.66588 2.6373,-4.08354 10.1108,-14.80542 7.1161,-6.38226 0.01,0.5733 -2.9416,10.14736 -6.2698,20.85242 -3.3281,10.70505 -7.714,20.71321 -7.9123,21.3938 -0.7274,2.49737 0.9453,1.10377 5.3044,-4.41925 2.4555,-3.11118 4.7413,-5.82773 5.0795,-6.03678 0.5503,-0.3401 9.8571,17.50568 9.8571,18.90097 0,0.31387 -1.1137,0.57067 -2.4749,0.57067 -2.9288,0 -3.0633,0.70684 -1.3746,7.224 0.6052,2.33538 0.9734,4.37308 0.8183,4.52821 -0.1552,0.15513 -4.2728,-0.99376 -9.1504,-2.5531 -4.8776,-1.55933 -9.3469,-2.83515 -9.9318,-2.83515 -1.43,0 -13.949,14.08917 -13.949,15.6986 0,0.78766 -0.5226,1.27196 -1.3725,1.27196 -0.7549,0 -1.5692,0.3182 -1.8095,0.70711 -0.2404,0.38891 -0.7307,0.70711 -1.0897,0.70711 -0.359,0 0.4865,-3.10244 1.8788,-6.8943 z"
           id="path11667"
           transform="scale(0.26458333)"
           sodipodi:nodetypes="ssccccccssssccsssscss" />
        <path
           style="fill:#ffffff;fill-opacity:1;stroke:none;stroke-width:0;stroke-dasharray:none"
           d="m -3275.3186,302.99525 c -4.4989,-2.66865 -5.4544,-2.70301 -4.915,-0.17677 0.356,1.66742 0.2823,1.78951 -0.5169,0.85673 -1.7696,-2.06528 -9.5382,-12.35298 -10.8103,-14.31562 l -1.2758,-1.96841 2.9254,0.46779 2.6804,-0.75663 -0.1632,-2.53737 -0.082,-5.47597 3.0625,3.22322 c 2.7416,1.75816 12.2543,17.57806 13.617,20.20679 1.27,2.44997 -0.1359,3.07821 -4.5224,0.47624 z"
           id="path11669"
           transform="scale(0.26458333)"
           sodipodi:nodetypes="sscsccccccss" />
        <path
           style="fill:#ffffff;fill-opacity:1;stroke:none;stroke-width:0;stroke-dasharray:none"
           d="m -3257.9549,295.53185 c -1.7742,-3.1437 -2.4862,-3.84237 -3.5661,-3.49961 -1.1189,0.35513 -1.4836,-0.0911 -2.1355,-2.61286 -0.4324,-1.67262 -0.9477,-3.59798 -1.1452,-4.27857 -0.1975,-0.68059 -0.058,-1.23744 0.3109,-1.23744 0.5327,0 12.1694,9.93254 17.0777,14.57667 0.8882,0.84045 0.3702,0.97968 -3.6448,0.97968 h -4.6803 z"
           id="path11673"
           transform="scale(0.26458333)" />
        <path
           style="fill:#ffffff;fill-opacity:1;stroke:none;stroke-width:0;stroke-dasharray:none"
           d="m -906.63451,81.401553 c 0,-0.08965 -0.075,-1.266611 0.41206,-2.792785 0.13877,-2.477656 2.10286,-4.017659 -0.0434,-2.277341 -0.66875,0.536614 -1.38089,0.85349 -1.44253,0.85349 -0.0616,0 -0.39761,-0.03912 -0.22403,-0.441587 0.17363,-0.402462 0.31557,-0.765152 0.37145,-0.899304 0.2286,-0.549002 -0.0546,-0.234119 -2.27712,1.356395 -1.28862,0.922168 -2.38135,1.340814 -2.43766,1.284965 -0.22313,-0.221258 8.88162,-12.67022 11.32116,-15.425795 2.19283,-2.476884 3.74223,-5.117786 5.15209,-7.141305 0.7418,-1.064667 1.8679,-1.539653 1.90513,-1.42883 0.0372,0.110822 -0.2534,0.894105 -0.64591,1.740627 -1.21518,2.620844 -1.19325,2.487796 -0.38859,2.358304 0.38166,-0.06142 0.69394,-0.06812 0.69394,-0.01487 0,0.05324 -1.0922,1.562435 -2.42716,3.353773 -2.68457,3.6024 -3.17209,4.306367 -3.0595,4.418015 0.0419,0.04159 0.80643,-0.239395 1.69881,-0.624422 0.8924,-0.385027 1.67117,-0.651841 1.73058,-0.592918 0.0594,0.05892 -0.20604,0.673749 -0.58993,1.366286 -0.38385,0.692534 -0.69791,1.396133 -0.69791,1.563552 0,0.167419 -0.0676,0.536626 -0.22484,0.596471 -0.38751,0.147461 -1.44224,1.478788 -1.26609,1.653478 0.13808,0.136928 0.36218,-0.05589 2.70546,-1.381319 0.63765,-0.360668 1.16786,-0.493019 1.12544,-0.373299 -0.10171,0.287144 -3.42328,4.145265 -7.43136,8.631795 -3.83706,4.29505 -3.96012,4.426092 -3.96012,4.216637 z"
           id="path11675"
           sodipodi:nodetypes="sccscccccsccssccsscscssccss" />
        <path
           style="fill:#ffffff;fill-opacity:1;stroke:none;stroke-width:0;stroke-dasharray:none"
           d="m -3477.816,296.80807 c 1.785,-2.27956 23.2223,-27.92886 24.3703,-28.10799 0.7584,-0.11834 0.4643,4.79166 -0.9407,11.53028 -0.9006,4.31982 -1.4145,6.70327 -2.2538,6.0067 -1.5225,-1.26356 -2.2532,-1.58107 -6.0421,5.72444 l -4.2622,6.43756 -0.2175,-3.0052 c -0.1196,-1.65287 -0.5625,-3.00521 -0.9842,-3.00521 -0.4218,0 -2.7822,1.2728 -5.2453,2.82843 -4.926,3.111 -5.8847,3.45576 -4.4245,1.59099 z"
           id="path11677"
           transform="scale(0.26458333)"
           sodipodi:nodetypes="sscscccscs" />
        <path
           style="fill:#ffffff;fill-opacity:1;stroke:none;stroke-width:0;stroke-dasharray:none"
           d="m -3335.2138,320.95971 c -0.1793,-0.19249 -0.2794,-0.73065 -0.1945,-1.04594 0.1304,-0.484 0.6636,-0.82321 1.1505,-0.73186 0.4074,0.0764 0.5145,0.40738 0.2804,0.86624 -0.1564,0.30668 -0.8733,1.0456 -1.0144,1.0456 -0.053,0 -0.1533,-0.0603 -0.222,-0.13404 z"
           id="path11679"
           transform="scale(0.26458333)" />
        <path
           style="fill:#ffffff;fill-opacity:1;stroke:none;stroke-width:0;stroke-dasharray:none"
           d="m -3276.9219,333.97036 c -0.2039,-0.16098 -0.2248,-0.40106 -0.065,-0.74217 0.1499,-0.31952 0.9117,-1.08963 1.0507,-1.06232 0.2179,0.0428 0.3682,0.34501 0.3925,0.78925 0.02,0.36008 0,0.45022 -0.1231,0.63288 -0.2155,0.31441 -0.4437,0.45721 -0.782,0.48937 -0.2429,0.0231 -0.3349,0.002 -0.4734,-0.10701 z"
           id="path11681"
           transform="scale(0.26458333)" />
        <path
           style="fill:#ffffff;fill-opacity:1;stroke:none;stroke-width:0;stroke-dasharray:none"
           d="m -3420.0204,317.87792 c -0.321,-0.22483 -0.4672,-0.73829 -0.2994,-1.05169 0.2958,-0.55287 1.5664,-0.82101 2.1045,-0.44414 0.385,0.26963 0.3476,0.56534 -0.1284,1.01589 -0.7205,0.68191 -1.1946,0.81762 -1.6767,0.47994 z"
           id="path11683"
           transform="scale(0.26458333)" />
        <path
           style="fill:#ffffff;fill-opacity:1;stroke:none;stroke-width:0;stroke-dasharray:none"
           d="m -891.13235,76.680398 c -0.13128,-0.131287 -0.114,-0.331571 0.0286,-0.331571 0.0759,0 0.29183,0.152059 0.33771,0.237792 0.0314,0.05873 0.0276,0.07884 -0.022,0.115123 -0.0895,0.06547 -0.26855,0.05437 -0.34428,-0.02135 z"
           id="path11685" />
        <path
           style="fill:#ffffff;fill-opacity:1;stroke:none;stroke-width:0;stroke-dasharray:none"
           d="m -3464.198,248.93909 c -0.1089,-0.0637 -0.3524,-0.33861 -0.5411,-0.61094 -0.281,-0.40549 -0.3185,-0.54128 -0.2068,-0.75001 0.2304,-0.43052 1.385,-0.50241 1.8515,-0.11529 0.2625,0.21789 0.1785,0.52937 -0.2903,1.07715 -0.4795,0.56019 -0.5112,0.57575 -0.8133,0.39909 z"
           id="path11687"
           transform="scale(0.26458333)" />
        <path
           style="fill:#ffffff;fill-opacity:1;stroke:none;stroke-width:0;stroke-dasharray:none"
           d="m -3379.7905,234.05209 c -0.2943,-0.10505 -0.556,-0.38234 -0.6344,-0.67217 -0.05,-0.18504 -0.02,-0.50944 0.062,-0.67039 0.3144,-0.61571 1.0975,-0.74896 1.5779,-0.26851 0.474,0.47402 0.3384,1.25431 -0.2718,1.56407 -0.2169,0.11007 -0.5054,0.12855 -0.7339,0.047 z"
           id="path11689"
           transform="scale(0.26458333)" />
        <path
           style="fill:#ffffff;fill-opacity:1;stroke:none;stroke-width:0;stroke-dasharray:none"
           d="m -3327.7234,263.08559 c -0.3431,-0.0899 -0.6262,-0.37527 -0.7169,-0.7227 -0.033,-0.12801 -0.032,-0.34999 0,-0.48008 0.059,-0.22197 0.2296,-0.45707 0.4271,-0.5882 0.123,-0.0816 0.3184,-0.14577 0.476,-0.15629 0.1693,-0.0113 0.3246,0.0218 0.4961,0.1058 0.2473,0.12108 0.4556,0.37808 0.5233,0.64588 0.03,0.11961 0.03,0.35069 -10e-5,0.47 -0.1351,0.53161 -0.6855,0.86235 -1.2075,0.72559 z"
           id="path11691"
           transform="scale(0.26458333)" />
        <path
           style="fill:#ffffff;fill-opacity:1;stroke:none;stroke-width:0;stroke-dasharray:none"
           d="m -3373.7741,151.05072 c -0.4259,-0.1309 -0.7444,-0.63732 -0.6695,-1.06437 0.043,-0.2449 0.2215,-0.53008 0.4087,-0.65265 0.4292,-0.28105 0.908,-0.2306 1.2411,0.13079 0.2227,0.24156 0.2764,0.37162 0.2764,0.66974 0,0.43337 -0.3381,0.84946 -0.7647,0.94094 -0.2585,0.0554 -0.2269,0.057 -0.492,-0.0245 z"
           id="path11693"
           transform="scale(0.26458333)" />
      </g>
      <path
         style="fill:#ffffff;stroke:#000000;stroke-width:0"
         d="m 379.00991,558.64497 c -1.61159,-0.65036 -2.47462,-3.25499 -1.37965,-4.16374 0.73814,-0.6126 2.08854,-0.1177 3.67486,1.34679 1.78703,1.64978 1.81368,2.32272 0.11073,2.79565 -1.50641,0.41835 -1.42384,0.41762 -2.40594,0.0213 z"
         id="path14403"
         transform="scale(0.26458333)" />
      <path
         style="fill:#ffffff;stroke:#000000;stroke-width:0"
         d="m 474.52286,568.94433 c 0,-0.0929 0.99636,-1.46728 2.21415,-3.05412 1.21778,-1.58683 3.31885,-4.53438 4.66905,-6.5501 3.73673,-5.57857 7.15133,-9.0751 8.86247,-9.0751 1.32788,0 4.20392,4.1059 8.90795,12.71719 3.2351,5.92223 3.24863,5.95723 2.34668,6.07112 -0.49895,0.063 -1.033,-0.0155 -1.18678,-0.17452 -0.15379,-0.15899 -1.41432,-2.33097 -2.80118,-4.82662 -3.36794,-6.0606 -6.74877,-11.4255 -7.47495,-11.86173 -0.73604,-0.44215 -2.70565,1.65893 -9.95272,10.61706 -4.48569,5.54478 -5.58467,6.75242 -5.58467,6.13682 z"
         id="path14405"
         transform="scale(0.26458333)" />
      <path
         style="fill:#ffffff;stroke:#000000;stroke-width:0"
         d="m 423.91174,568.97831 c 0,-0.19673 28.44581,-46.57902 39.94722,-65.13591 16.68597,-26.92187 17.77052,-28.6057 18.43009,-28.61388 0.33595,-0.004 0.61082,0.0704 0.61082,0.1656 0,0.0952 -2.77544,4.53244 -6.16764,9.86044 -7.48811,11.76127 -28.08134,44.91359 -41.84169,67.35947 -5.5584,9.06688 -10.30253,16.48839 -10.5425,16.49225 -0.23996,0.004 -0.4363,-0.0537 -0.4363,-0.12797 z"
         id="path14407"
         transform="scale(0.26458333)" />
      <path
         style="fill:#ffffff;stroke:#000000;stroke-width:0"
         d="m 607.02077,567.74268 c -0.8551,-3.11588 -0.23883,-3.18052 0.1706,-3.97835 0.33148,-0.64593 1.32005,0.13674 2.41082,0.28967 1.72563,0.24195 10.34964,3.06375 9.86112,3.22659 -0.16734,0.0558 -2.71258,0.70971 -5.58069,0.24656 -2.86811,-0.46316 -5.21529,-1.77086 -5.29138,-1.69939 -0.0761,0.0715 1.69648,1.25168 2.20451,2.01936 1.07103,1.61845 0.41132,1.19764 0.096,1.82149 -1.05771,2.09258 -3.62603,-1.03341 -3.87097,-1.92593 z"
         id="path14409"
         transform="scale(0.26458333)"
         sodipodi:nodetypes="sssssssss" />
    </g>
  </g>
</svg>
